<?xml version="1.0" standalone="no"?>
<!DOCTYPE svg PUBLIC "-//W3C//DTD SVG 20010904//EN"
 "http://www.w3.org/TR/2001/REC-SVG-20010904/DTD/svg10.dtd">
<svg version="1.0" xmlns="http://www.w3.org/2000/svg"
 width="260.000000pt" height="260.000000pt" viewBox="0 0 260.000000 260.000000"
 preserveAspectRatio="xMidYMid meet">
<metadata>
Created by potrace 1.14, written by Peter Selinger 2001-2017
</metadata>
<g transform="translate(0.000000,260.000000) scale(0.100000,-0.100000)"
fill="#000000" stroke="none">
<path d="M1789 2438 c0 -2 -1 -18 -2 -36 -2 -31 0 -32 36 -32 20 0 37 -3 38
-7 0 -5 2 -64 3 -133 3 -135 11 -163 56 -178 22 -7 39 -8 110 -3 14 1 20 8 20
25 0 45 -8 52 -51 48 -22 -3 -46 1 -52 7 -6 6 -11 67 -11 158 l-1 148 -73 3
c-39 2 -72 2 -73 0z"/>
<path d="M554 2235 l0 -185 128 0 128 0 0 30 c0 33 6 31 -110 34 l-75 1 0 150
-1 150 -35 3 -35 3 0 -186z"/>
<path d="M919 2315 c-53 -29 -75 -127 -45 -200 37 -87 166 -95 216 -13 22 37
26 106 9 156 -21 61 -117 91 -180 57z m102 -71 c19 -23 16 -104 -5 -120 -10
-7 -25 -11 -34 -9 -9 2 -20 4 -24 4 -4 1 -12 18 -19 39 -9 32 -8 44 5 70 19
36 54 43 77 16z"/>
<path d="M1243 2314 c-48 -24 -67 -60 -68 -126 0 -63 22 -103 68 -126 30 -15
110 -23 148 -15 23 4 27 10 24 32 -2 14 -4 28 -4 31 -1 3 -28 5 -62 5 -54 0
-63 3 -84 27 -25 29 -24 70 3 101 19 21 75 23 92 2 17 -20 33 -19 54 4 50 55
-86 107 -171 65z"/>
<path d="M1517 2324 c-4 -4 -7 -20 -7 -36 0 -27 2 -28 51 -28 50 0 89 -13 89
-29 0 -5 -22 -8 -48 -8 -77 0 -117 -29 -128 -92 -12 -69 111 -118 158 -61 21
26 28 25 28 -3 0 -19 5 -23 23 -21 12 1 34 3 50 3 23 1 27 5 27 31 0 23 -4 30
-20 30 -18 0 -20 7 -20 74 0 70 -2 76 -31 105 -17 17 -36 31 -42 32 -7 0 -37
2 -67 5 -31 3 -59 2 -63 -2z m133 -171 c-1 -26 -49 -53 -82 -45 -18 3 -24 32
-11 45 9 10 93 9 93 0z"/>
<path d="M1276 1808 c-15 -21 -9 -49 15 -63 20 -13 59 5 65 30 13 51 -50 76
-80 33z"/>
<path d="M869 1793 c-1 -4 -2 -88 -3 -185 l-1 -178 93 0 c102 0 139 12 161 52
12 24 11 67 -3 100 -7 16 -39 32 -81 41 -19 5 -19 5 1 6 28 1 64 37 65 64 2
39 -2 52 -26 76 -20 21 -34 24 -114 28 -50 2 -92 0 -92 -4z m148 -76 c23 -23
8 -54 -30 -60 -18 -2 -36 -3 -42 -1 -11 5 -12 54 -2 71 9 14 57 8 74 -10z m26
-148 c36 -51 -19 -88 -103 -70 -5 1 -5 78 -1 89 1 1 21 2 45 2 34 0 48 -5 59
-21z"/>
<path d="M1202 1701 c-5 -3 -10 -18 -10 -33 0 -26 3 -28 45 -28 l44 0 -3 -72
-3 -73 -47 1 c-48 0 -48 0 -48 -33 l0 -34 128 3 c136 3 128 0 123 52 0 7 -13
13 -28 14 -16 0 -34 0 -40 1 -10 1 -13 29 -13 104 l0 103 -69 1 c-38 0 -74 -3
-79 -6z"/>
<path d="M1551 1698 c-45 -24 -64 -62 -64 -125 0 -81 36 -141 87 -145 127 -9
165 36 157 184 0 15 -14 42 -29 59 -23 26 -38 32 -78 36 -29 2 -59 -1 -73 -9z
m99 -84 c22 -57 4 -114 -38 -121 -44 -6 -72 95 -36 131 25 25 63 20 74 -10z"/>
<path d="M850 1165 c0 -34 1 -35 39 -35 l39 0 0 -102 c-1 -156 0 -165 25 -193
18 -22 32 -27 67 -28 92 -1 92 -1 88 40 l-3 37 -47 -3 c-58 -3 -57 -6 -61 179
l-2 135 -72 3 -73 3 0 -36z"/>
<path d="M1160 1164 c0 -33 1 -34 39 -34 l39 0 4 -140 c3 -130 5 -141 26 -162
18 -18 34 -23 75 -23 74 1 84 6 79 48 -4 34 -5 35 -43 30 -66 -9 -69 -1 -69
168 l0 149 -75 -1 -75 -1 0 -34z"/>
<path d="M2158 1128 c-3 -42 -4 -43 -35 -41 -31 2 -33 0 -33 -33 0 -32 2 -34
35 -34 l35 0 0 -76 c0 -70 2 -78 29 -105 16 -16 40 -29 53 -30 13 -1 36 -2 52
-4 52 -4 66 4 66 40 0 31 -1 32 -45 30 -68 -3 -85 14 -85 86 l0 59 60 0 60 0
0 34 c0 32 -1 33 -42 33 -81 1 -78 0 -78 43 0 39 -1 40 -34 40 -34 0 -35 -1
-38 -42z"/>
<path d="M320 1082 c-57 -25 -82 -66 -83 -131 -1 -92 49 -141 151 -146 80 -4
91 1 89 39 l-2 32 -63 -1 c-55 0 -67 4 -83 24 -40 49 -13 121 44 121 18 0 43
-7 55 -16 20 -14 24 -14 46 3 29 23 21 45 -24 68 -30 15 -103 19 -130 7z"/>
<path d="M608 1074 c-37 -20 -58 -63 -59 -121 -1 -58 11 -90 45 -122 35 -33
112 -35 153 -5 51 38 65 134 32 207 -23 51 -114 72 -171 41z m104 -76 c10 -21
12 -36 9 -82 -3 -37 -57 -54 -83 -28 -19 19 -21 81 -4 107 21 32 61 33 78 3z"/>
<path d="M1551 1077 c-45 -23 -66 -63 -66 -126 0 -95 44 -141 141 -146 83 -4
96 1 91 39 -3 30 -4 31 -58 31 -54 1 -99 17 -99 35 0 6 37 10 85 10 74 0 85 2
86 18 8 94 -38 152 -121 152 -19 0 -46 -6 -59 -13z m97 -70 c28 -22 13 -37
-38 -37 -55 0 -67 17 -29 44 21 14 42 12 67 -7z"/>
<path d="M1885 1083 c-11 -3 -32 -16 -47 -30 -65 -62 -47 -198 31 -230 39 -17
142 -25 161 -13 6 4 10 20 8 36 -3 28 -6 29 -53 30 -27 1 -56 2 -62 3 -24 2
-53 41 -53 71 0 58 69 91 116 55 25 -19 26 -19 53 6 18 17 20 23 10 36 -31 36
-99 51 -164 36z"/>
<path d="M1030 498 c-1 -67 -3 -79 -12 -63 -6 11 -16 23 -22 27 -19 13 -71 9
-95 -8 -71 -50 -66 -221 8 -258 35 -18 82 -12 103 14 16 20 29 26 27 13 -5
-33 2 -40 34 -34 l32 7 0 189 0 190 -38 3 -37 3 0 -83z m-10 -124 c22 -56 0
-124 -38 -124 -35 1 -55 27 -56 74 0 53 16 76 55 76 22 0 32 -6 39 -26z"/>
<path d="M1250 462 c-53 -24 -80 -69 -80 -133 0 -90 52 -140 149 -144 76 -3
91 2 87 29 -3 11 -5 26 -5 32 -1 8 -19 11 -50 9 -51 -3 -91 11 -99 33 -3 9 18
12 82 12 l86 0 0 40 c0 52 -23 96 -60 115 -30 15 -83 19 -110 7z m88 -80 c21
-27 14 -32 -43 -32 -30 0 -55 3 -55 7 0 4 9 17 21 29 22 24 55 22 77 -4z"/>
<path d="M1473 457 c2 -7 24 -69 48 -139 l44 -128 46 0 47 0 43 128 c23 70 44
132 46 138 3 7 -10 11 -34 10 l-37 -1 -32 -105 c-36 -117 -32 -118 -74 19
l-27 85 -37 2 c-25 2 -36 -1 -33 -9z"/>
</g>
</svg>
